<?xml version="1.0" encoding="UTF-8"?>
<svg width="636px" height="876px" viewBox="0 0 636 876" version="1.1" xmlns="http://www.w3.org/2000/svg" xmlns:xlink="http://www.w3.org/1999/xlink">
    <!-- Generator: Sketch 52.5 (67469) - http://www.bohemiancoding.com/sketch -->
    <title>Group 3</title>
    <desc>Created with Sketch.</desc>
    <g id="HN" stroke="none" stroke-width="1" fill="none" fill-rule="evenodd">
        <g id="Group-3">
            <g id="firequery" transform="translate(71.000000, 0.000000)">
                <path d="M50,454 L119,45" id="Line" stroke="#FFD337" stroke-width="20" stroke-linecap="square"></path>
                <path d="M50,455 L238,560" id="Line" stroke="#FFD337" stroke-width="20" stroke-linecap="square"></path>
                <path d="M427,455 L238,565" id="Line" stroke="#FFD337" stroke-width="20" stroke-linecap="square"></path>
                <path d="M425,459 L378,150" id="Line" stroke="#FFD337" stroke-width="20" stroke-linecap="square"></path>
                <path d="M234,355 L378,150" id="Line" stroke="#FFD337" stroke-width="20" stroke-linecap="square"></path>
                <path d="M234,355 L39,465" id="Line" stroke="#FFD337" stroke-width="20" stroke-linecap="square"></path>
                <path d="M234,355 L427,455" id="Line" stroke="#FFD337" stroke-width="20" stroke-linecap="square"></path>
                <path d="M240,171 L123,46" id="Line" stroke="#FFD337" stroke-width="20" stroke-linecap="square"></path>
                <path d="M249,177 L377,150" id="Line" stroke="#FFD337" stroke-width="20" stroke-linecap="square"></path>
                <path d="M234,355 L119,41" id="Line" stroke="#FFD337" stroke-width="20" stroke-linecap="square"></path>
                <circle id="Oval" fill="#F99403" cx="238" cy="558" r="25"></circle>
                <circle id="Oval" fill="#F99403" cx="119" cy="50" r="50"></circle>
                <circle id="Oval" fill="#F99403" cx="427" cy="455" r="25"></circle>
                <circle id="Oval" fill="#FFB513" cx="246" cy="173" r="25"></circle>
                <circle id="Oval" fill="#F99403" cx="383" cy="150" r="50"></circle>
                <circle id="Oval" fill="#FFB410" cx="240" cy="360" r="50"></circle>
                <circle id="Oval" fill="#F99403" cx="50" cy="454" r="50"></circle>
            </g>
            <path d="M0,738.912 L65.808,738.912 L65.808,755.328 L18.144,755.328 L18.144,782.112 L63.072,782.112 L63.072,798.528 L18.144,798.528 L18.144,840.864 L0,840.864 L0,738.912 Z M81.36,771.744 L98.64,771.744 L98.64,840.864 L81.36,840.864 L81.36,771.744 Z M78.912,748.272 C78.912,745.487986 79.9439897,743.06401 82.008,741 C84.0720103,738.93599 86.6879842,737.904 89.856,737.904 C93.0240158,737.904 95.6879892,738.88799 97.848,740.856 C100.008011,742.82401 101.088,745.295985 101.088,748.272 C101.088,751.248015 100.008011,753.71999 97.848,755.688 C95.6879892,757.65601 93.0240158,758.64 89.856,758.64 C86.6879842,758.64 84.0720103,757.60801 82.008,755.544 C79.9439897,753.47999 78.912,751.056014 78.912,748.272 Z M118.512,771.744 L135.792,771.744 L135.792,782.688 L136.08,782.688 C138.00001,778.65598 140.735982,775.536011 144.288,773.328 C147.840018,771.119989 151.919977,770.016 156.528,770.016 C157.584005,770.016 158.615995,770.111999 159.624,770.304 C160.632005,770.496001 161.663995,770.735999 162.72,771.024 L162.72,787.728 C161.279993,787.343998 159.864007,787.032001 158.472,786.792 C157.079993,786.551999 155.712007,786.432 154.368,786.432 C150.33598,786.432 147.096012,787.175993 144.648,788.664 C142.199988,790.152007 140.328006,791.85599 139.032,793.776 C137.735994,795.69601 136.872002,797.61599 136.44,799.536 C136.007998,801.45601 135.792,802.895995 135.792,803.856 L135.792,840.864 L118.512,840.864 L118.512,771.744 Z M188.352,812.352 C188.928003,817.536026 190.943983,821.567986 194.4,824.448 C197.856017,827.328014 202.031976,828.768 206.928,828.768 C211.248022,828.768 214.871985,827.880009 217.8,826.104 C220.728015,824.327991 223.295989,822.096013 225.504,819.408 L237.888,828.768 C233.85598,833.760025 229.344025,837.311989 224.352,839.424 C219.359975,841.536011 214.128027,842.592 208.656,842.592 C203.471974,842.592 198.576023,841.728009 193.968,840 C189.359977,838.271991 185.376017,835.824016 182.016,832.656 C178.655983,829.487984 175.99201,825.672022 174.024,821.208 C172.05599,816.743978 171.072,811.776027 171.072,806.304 C171.072,800.831973 172.05599,795.864022 174.024,791.4 C175.99201,786.935978 178.655983,783.120016 182.016,779.952 C185.376017,776.783984 189.359977,774.336009 193.968,772.608 C198.576023,770.879991 203.471974,770.016 208.656,770.016 C213.456024,770.016 217.84798,770.855992 221.832,772.536 C225.81602,774.216008 229.223986,776.639984 232.056,779.808 C234.888014,782.976016 237.095992,786.887977 238.68,791.544 C240.264008,796.200023 241.056,801.55197 241.056,807.6 L241.056,812.352 L188.352,812.352 Z M223.776,799.392 C223.68,794.303975 222.096015,790.296015 219.024,787.368 C215.951985,784.439985 211.680027,782.976 206.208,782.976 C201.023974,782.976 196.920015,784.463985 193.896,787.44 C190.871985,790.416015 189.024003,794.399975 188.352,799.392 L223.776,799.392 Z M328.32,771.744 L328.32,834.672 C328.32,840.912031 327.552008,846.551975 326.016,851.592 C324.479992,856.632025 322.104016,860.903982 318.888,864.408 C315.671984,867.912018 311.616024,870.62399 306.72,872.544 C301.823976,874.46401 296.016034,875.424 289.296,875.424 C282.863968,875.424 276.768029,874.608008 271.008,872.976 C265.247971,871.343992 259.920024,868.368022 255.024,864.048 L265.392,849.936 C268.848017,853.104016 272.447981,855.551991 276.192,857.28 C279.936019,859.008009 284.255976,859.872 289.152,859.872 C293.280021,859.872 296.759986,859.296006 299.592,858.144 C302.424014,856.991994 304.679992,855.40801 306.36,853.392 C308.040008,851.37599 309.239996,848.952014 309.96,846.12 C310.680004,843.287986 311.04,840.144017 311.04,836.688 L311.04,831.648 L310.752,831.648 C308.255988,835.008017 304.944021,837.527992 300.816,839.208 C296.687979,840.888008 292.464022,841.728 288.144,841.728 C282.959974,841.728 278.256021,840.792009 274.032,838.92 C269.807979,837.047991 266.184015,834.528016 263.16,831.36 C260.135985,828.191984 257.808008,824.448022 256.176,820.128 C254.543992,815.807978 253.728,811.200024 253.728,806.304 C253.728,801.215975 254.495992,796.464022 256.032,792.048 C257.568008,787.631978 259.823985,783.792016 262.8,780.528 C265.776015,777.263984 269.351979,774.696009 273.528,772.824 C277.704021,770.951991 282.479973,770.016 287.856,770.016 C292.752024,770.016 297.311979,770.97599 301.536,772.896 C305.760021,774.81601 309.119988,777.887979 311.616,782.112 L311.904,782.112 L311.904,771.744 L328.32,771.744 Z M291.456,785.568 C288.383985,785.568 285.600012,786.071995 283.104,787.08 C280.607988,788.088005 278.472009,789.479991 276.696,791.256 C274.919991,793.032009 273.528005,795.191987 272.52,797.736 C271.511995,800.280013 271.008,803.087985 271.008,806.16 C271.008,808.944014 271.511995,811.535988 272.52,813.936 C273.528005,816.336012 274.943991,818.447991 276.768,820.272 C278.592009,822.096009 280.751988,823.535995 283.248,824.592 C285.744012,825.648005 288.431986,826.176 291.312,826.176 C294.480016,826.176 297.335987,825.648005 299.88,824.592 C302.424013,823.535995 304.583991,822.120009 306.36,820.344 C308.136009,818.567991 309.503995,816.432012 310.464,813.936 C311.424005,811.439988 311.904,808.752014 311.904,805.872 C311.904,799.82397 310.080018,794.928019 306.432,791.184 C302.783982,787.439981 297.792032,785.568 291.456,785.568 Z M347.904,771.744 L365.184,771.744 L365.184,782.688 L365.472,782.688 C367.39201,778.65598 370.127982,775.536011 373.68,773.328 C377.232018,771.119989 381.311977,770.016 385.92,770.016 C386.976005,770.016 388.007995,770.111999 389.016,770.304 C390.024005,770.496001 391.055995,770.735999 392.112,771.024 L392.112,787.728 C390.671993,787.343998 389.256007,787.032001 387.864,786.792 C386.471993,786.551999 385.104007,786.432 383.76,786.432 C379.72798,786.432 376.488012,787.175993 374.04,788.664 C371.591988,790.152007 369.720006,791.85599 368.424,793.776 C367.127994,795.69601 366.264002,797.61599 365.832,799.536 C365.399998,801.45601 365.184,802.895995 365.184,803.856 L365.184,840.864 L347.904,840.864 L347.904,771.744 Z M447.12,831.36 L446.688,831.36 C444.191988,835.29602 441.024019,838.151991 437.184,839.928 C433.343981,841.704009 429.120023,842.592 424.512,842.592 C421.343984,842.592 418.248015,842.160004 415.224,841.296 C412.199985,840.431996 409.512012,839.136009 407.16,837.408 C404.807988,835.679991 402.912007,833.520013 401.472,830.928 C400.031993,828.335987 399.312,825.312017 399.312,821.856 C399.312,818.111981 399.983993,814.920013 401.328,812.28 C402.672007,809.639987 404.471989,807.432009 406.728,805.656 C408.984011,803.879991 411.599985,802.464005 414.576,801.408 C417.552015,800.351995 420.647984,799.560003 423.864,799.032 C427.080016,798.503997 430.319984,798.168001 433.584,798.024 C436.848016,797.879999 439.919986,797.808 442.8,797.808 L447.12,797.808 L447.12,795.936 C447.12,791.615978 445.632015,788.376011 442.656,786.216 C439.679985,784.055989 435.888023,782.976 431.28,782.976 C427.631982,782.976 424.224016,783.623994 421.056,784.92 C417.887984,786.216006 415.152012,787.967989 412.848,790.176 L403.776,781.104 C407.616019,777.16798 412.103974,774.336009 417.24,772.608 C422.376026,770.879991 427.679973,770.016 433.152,770.016 C438.048024,770.016 442.175983,770.567994 445.536,771.672 C448.896017,772.776006 451.679989,774.191991 453.888,775.92 C456.096011,777.648009 457.799994,779.639989 459,781.896 C460.200006,784.152011 461.063997,786.431988 461.592,788.736 C462.120003,791.040012 462.432,793.271989 462.528,795.432 C462.624,797.592011 462.672,799.487992 462.672,801.12 L462.672,840.864 L447.12,840.864 L447.12,831.36 Z M446.112,809.904 L442.512,809.904 C440.111988,809.904 437.424015,809.999999 434.448,810.192 C431.471985,810.384001 428.664013,810.839996 426.024,811.56 C423.383987,812.280004 421.152009,813.335993 419.328,814.728 C417.503991,816.120007 416.592,818.063988 416.592,820.56 C416.592,822.192008 416.951996,823.559994 417.672,824.664 C418.392004,825.768006 419.327994,826.703996 420.48,827.472 C421.632006,828.240004 422.927993,828.791998 424.368,829.128 C425.808007,829.464002 427.247993,829.632 428.688,829.632 C434.64003,829.632 439.031986,828.216014 441.864,825.384 C444.696014,822.551986 446.112,818.688024 446.112,813.792 L446.112,809.904 Z M481.248,771.744 L497.664,771.744 L497.664,782.112 L497.952,782.112 C500.448012,777.887979 503.807979,774.81601 508.032,772.896 C512.256021,770.97599 516.815976,770.016 521.712,770.016 C526.992026,770.016 531.743979,770.951991 535.968,772.824 C540.192021,774.696009 543.791985,777.263984 546.768,780.528 C549.744015,783.792016 551.999992,787.631978 553.536,792.048 C555.072008,796.464022 555.84,801.215975 555.84,806.304 C555.84,811.392025 555.024008,816.143978 553.392,820.56 C551.759992,824.976022 549.480015,828.815984 546.552,832.08 C543.623985,835.344016 540.096021,837.911991 535.968,839.784 C531.839979,841.656009 527.328024,842.592 522.432,842.592 C519.167984,842.592 516.288012,842.256003 513.792,841.584 C511.295988,840.911997 509.08801,840.048005 507.168,838.992 C505.24799,837.935995 503.616007,836.808006 502.272,835.608 C500.927993,834.407994 499.824004,833.232006 498.96,832.08 L498.528,832.08 L498.528,873.696 L481.248,873.696 L481.248,771.744 Z M538.56,806.304 C538.56,803.615987 538.104005,801.024012 537.192,798.528 C536.279995,796.031988 534.936009,793.82401 533.16,791.904 C531.383991,789.98399 529.248012,788.448006 526.752,787.296 C524.255988,786.143994 521.424016,785.568 518.256,785.568 C515.087984,785.568 512.256012,786.143994 509.76,787.296 C507.263988,788.448006 505.128009,789.98399 503.352,791.904 C501.575991,793.82401 500.232005,796.031988 499.32,798.528 C498.407995,801.024012 497.952,803.615987 497.952,806.304 C497.952,808.992013 498.407995,811.583988 499.32,814.08 C500.232005,816.576012 501.575991,818.78399 503.352,820.704 C505.128009,822.62401 507.263988,824.159994 509.76,825.312 C512.256012,826.464006 515.087984,827.04 518.256,827.04 C521.424016,827.04 524.255988,826.464006 526.752,825.312 C529.248012,824.159994 531.383991,822.62401 533.16,820.704 C534.936009,818.78399 536.279995,816.576012 537.192,814.08 C538.104005,811.583988 538.56,808.992013 538.56,806.304 Z M589.248,781.392 L589.536,781.392 C590.880007,778.511986 593.255983,775.896012 596.664,773.544 C600.072017,771.191988 604.463973,770.016 609.84,770.016 C614.448023,770.016 618.359984,770.783992 621.576,772.32 C624.792016,773.856008 627.40799,775.871988 629.424,778.368 C631.44001,780.864012 632.879996,783.743984 633.744,787.008 C634.608004,790.272016 635.04,793.679982 635.04,797.232 L635.04,840.864 L617.76,840.864 L617.76,805.872 C617.76,803.95199 617.664001,801.816012 617.472,799.464 C617.279999,797.111988 616.776004,794.90401 615.96,792.84 C615.143996,790.77599 613.872009,789.048007 612.144,787.656 C610.415991,786.263993 608.064015,785.568 605.088,785.568 C602.207986,785.568 599.78401,786.047995 597.816,787.008 C595.84799,787.968005 594.216006,789.263992 592.92,790.896 C591.623994,792.528008 590.688003,794.399989 590.112,796.512 C589.535997,798.624011 589.248,800.831988 589.248,803.136 L589.248,840.864 L571.968,840.864 L571.968,732 L589.248,732 L589.248,781.392 Z" id="Firegraph" fill="#85858C"></path>
        </g>
    </g>
</svg>